<svg width="158" height="35" viewBox="0 0 158 35" fill="none" xmlns="http://www.w3.org/2000/svg">
<path d="M0.351959 2.59064C0.351959 1.98264 0.575959 1.48664 1.02396 1.10264C1.47196 0.686642 2.01596 0.478642 2.65596 0.478642H24.064C24.064 1.82264 23.792 2.81464 23.248 3.45464C22.704 4.09464 21.872 4.41464 20.752 4.41464H4.86396V14.9266H18.304C18.304 16.2706 18.032 17.2626 17.488 17.9026C16.944 18.5426 16.112 18.8626 14.992 18.8626H4.86396V30.8626C4.86396 32.1106 4.49596 33.0386 3.75996 33.6466C3.02396 34.2226 1.88796 34.5106 0.351959 34.5106V2.59064ZM29.1137 6.04664C28.2177 6.04664 27.4657 5.75864 26.8577 5.18264C26.2497 4.60664 25.9457 3.88664 25.9457 3.02264C25.9457 2.15864 26.2497 1.45464 26.8577 0.910642C27.4657 0.334641 28.2177 0.0466413 29.1137 0.0466413C29.9777 0.0466413 30.7137 0.334641 31.3217 0.910642C31.9297 1.45464 32.2337 2.15864 32.2337 3.02264C32.2337 3.88664 31.9297 4.60664 31.3217 5.18264C30.7137 5.75864 29.9777 6.04664 29.1137 6.04664ZM27.0017 12.7186C27.0017 11.6626 27.3377 10.8946 28.0097 10.4146C28.7137 9.90264 29.7697 9.64664 31.1777 9.64664V31.4386C31.1777 32.4946 30.8257 33.2786 30.1217 33.7906C29.4497 34.2706 28.4097 34.5106 27.0017 34.5106V12.7186ZM38.977 13.1986C38.977 10.8306 40.321 9.64664 43.009 9.64664V12.7186C42.721 13.0066 42.385 13.4386 42.001 14.0146L42.193 14.2066C43.153 12.8626 44.401 11.7746 45.937 10.9426C47.473 10.0786 49.137 9.64664 50.929 9.64664C53.521 9.64664 55.569 10.4146 57.073 11.9506C58.577 13.4866 59.329 15.4706 59.329 17.9026V31.4386C59.329 32.4946 58.977 33.2786 58.273 33.7906C57.601 34.2706 56.561 34.5106 55.153 34.5106V18.3346C55.153 16.7986 54.721 15.5826 53.857 14.6866C52.993 13.7906 51.681 13.3426 49.921 13.3426C48.737 13.3426 47.617 13.5986 46.561 14.1106C45.537 14.5906 44.705 15.2626 44.065 16.1266C43.457 16.9586 43.153 17.8706 43.153 18.8626V31.4386C43.153 32.4946 42.801 33.2786 42.097 33.7906C41.425 34.2706 40.385 34.5106 38.977 34.5106V13.1986ZM65.5551 2.59064C65.5551 1.98264 65.7791 1.48664 66.2271 1.10264C66.6751 0.686642 67.2191 0.478642 67.8591 0.478642H89.2671C89.2671 1.82264 88.9951 2.81464 88.4511 3.45464C87.9071 4.09464 87.0751 4.41464 85.9551 4.41464H70.0671V14.9266H83.5071C83.5071 16.2706 83.2351 17.2626 82.6911 17.9026C82.1471 18.5426 81.3151 18.8626 80.1951 18.8626H70.0671V30.8626C70.0671 32.1106 69.6991 33.0386 68.9631 33.6466C68.2271 34.2226 67.0911 34.5106 65.5551 34.5106V2.59064ZM97 34.5106C95.048 34.5106 93.304 34.1426 91.768 33.4066C90.232 32.6386 89.032 31.5986 88.168 30.2866C87.304 28.9426 86.872 27.4386 86.872 25.7746V18.6706C86.872 16.9746 87.32 15.4386 88.216 14.0626C89.144 12.6866 90.376 11.6146 91.912 10.8466C93.48 10.0466 95.176 9.64664 97 9.64664C98.824 9.64664 100.488 10.0306 101.992 10.7986C103.528 11.5666 104.728 12.6226 105.592 13.9666C106.488 15.3106 106.936 16.8306 106.936 18.5266V21.5986C106.936 22.1106 106.744 22.5426 106.36 22.8946C105.976 23.2466 105.512 23.4226 104.968 23.4226H90.952V25.5826C90.952 27.2146 91.464 28.5266 92.488 29.5186C93.544 30.5106 95.048 31.0066 97 31.0066C98.952 31.0066 100.44 30.5746 101.464 29.7106C102.488 28.8466 103 27.6786 103 26.2066C103.96 26.1426 104.76 26.3346 105.4 26.7826C106.072 27.1986 106.408 27.8226 106.408 28.6546C106.408 29.6786 105.96 30.6386 105.064 31.5346C104.2 32.4306 103.048 33.1506 101.608 33.6946C100.168 34.2386 98.632 34.5106 97 34.5106ZM103.048 20.1586V18.5266C103.048 16.9266 102.488 15.6306 101.368 14.6386C100.28 13.6146 98.824 13.1026 97 13.1026C95.176 13.1026 93.704 13.6146 92.584 14.6386C91.496 15.6306 90.952 16.9266 90.952 18.5266V20.1586H103.048ZM122.125 34.5106C120.173 34.5106 118.429 34.1426 116.893 33.4066C115.357 32.6386 114.157 31.5986 113.293 30.2866C112.429 28.9426 111.997 27.4386 111.997 25.7746V18.6706C111.997 16.9746 112.445 15.4386 113.341 14.0626C114.269 12.6866 115.501 11.6146 117.037 10.8466C118.605 10.0466 120.301 9.64664 122.125 9.64664C123.949 9.64664 125.613 10.0306 127.117 10.7986C128.653 11.5666 129.853 12.6226 130.717 13.9666C131.613 15.3106 132.061 16.8306 132.061 18.5266V21.5986C132.061 22.1106 131.869 22.5426 131.485 22.8946C131.101 23.2466 130.637 23.4226 130.093 23.4226H116.077V25.5826C116.077 27.2146 116.589 28.5266 117.613 29.5186C118.669 30.5106 120.173 31.0066 122.125 31.0066C124.077 31.0066 125.565 30.5746 126.589 29.7106C127.613 28.8466 128.125 27.6786 128.125 26.2066C129.085 26.1426 129.885 26.3346 130.525 26.7826C131.197 27.1986 131.533 27.8226 131.533 28.6546C131.533 29.6786 131.085 30.6386 130.189 31.5346C129.325 32.4306 128.173 33.1506 126.733 33.6946C125.293 34.2386 123.757 34.5106 122.125 34.5106ZM128.173 20.1586V18.5266C128.173 16.9266 127.613 15.6306 126.493 14.6386C125.405 13.6146 123.949 13.1026 122.125 13.1026C120.301 13.1026 118.829 13.6146 117.709 14.6386C116.621 15.6306 116.077 16.9266 116.077 18.5266V20.1586H128.173ZM146.386 34.5106C143.634 34.5106 141.394 33.7586 139.666 32.2546C137.97 30.7186 137.122 28.6866 137.122 26.1586V17.9506C137.122 16.3186 137.522 14.8786 138.322 13.6306C139.122 12.3506 140.226 11.3746 141.634 10.7026C143.074 9.99864 144.722 9.64664 146.578 9.64664C148.082 9.64664 149.474 9.96664 150.754 10.6066C152.034 11.2146 153.154 12.0306 154.114 13.0546L154.258 12.8146C154.034 12.4946 153.698 12.1426 153.25 11.7586V3.31064C153.25 2.25464 153.602 1.45464 154.306 0.910642C155.01 0.334641 156.066 0.0466413 157.474 0.0466413V31.1026C157.474 32.1586 157.154 32.9906 156.514 33.5986C155.906 34.2066 154.914 34.5106 153.538 34.5106V31.8226C153.986 31.2466 154.29 30.8306 154.45 30.5746L154.306 30.3826C153.282 31.6626 152.146 32.6706 150.898 33.4066C149.65 34.1426 148.146 34.5106 146.386 34.5106ZM147.298 30.8146C148.994 30.8146 150.418 30.3826 151.57 29.5186C152.722 28.6226 153.298 27.5186 153.298 26.2066V17.9026C153.298 16.6226 152.754 15.5506 151.666 14.6866C150.578 13.7906 149.106 13.3426 147.25 13.3426C145.362 13.3426 143.89 13.7746 142.834 14.6386C141.81 15.4706 141.298 16.6386 141.298 18.1426V25.9666C141.298 27.5346 141.81 28.7346 142.834 29.5666C143.89 30.3986 145.378 30.8146 147.298 30.8146Z" fill="black"/>
</svg>
